<?xml version="1.0" encoding="utf-8"?>
<!-- Generator: Adobe Illustrator 27.7.0, SVG Export Plug-In . SVG Version: 6.00 Build 0)  -->
<svg version="1.1" id="Layer_1" xmlns="http://www.w3.org/2000/svg" xmlns:xlink="http://www.w3.org/1999/xlink" x="0px" y="0px"
	 width="280px" height="159.7px" viewBox="0 0 280 159.7" style="enable-background:new 0 0 280 159.7;" xml:space="preserve">
<style type="text/css">
	.st0{fill:#56AD57;}
	.st1{fill:#2D4F2C;}
</style>
<path class="st0" d="M21.3,13.7c0-2.4-0.8-4.4-2.3-5.9c-1.5-1.5-4.1-2.4-7.9-2.8c-0.4,0-0.6-0.2-0.8-0.6C10.1,4,10,3.6,10,3.1
	s0.1-0.8,0.3-1.2c0.2-0.4,0.5-0.6,0.9-0.6c0.9,0,2.3,0,4.2,0c1.9,0,3.9,0.1,5.8,0.2c2,0.1,3.8,0.3,5.4,0.5c1.6,0.2,2.6,0.5,2.9,0.9
	L74,55.8c0.9,1,1.3,0.8,1.3-0.6v-27c0-1.2,0-2.6,0-4.3c0-1.8,0-3.5-0.1-5.2c-0.1-1.7-0.2-3.4-0.3-4.9c-0.1-1.5-0.3-2.8-0.6-3.6
	c-0.4-1.1-0.7-2-1.1-2.6c-0.4-0.6-0.9-1.1-1.5-1.4c-0.6-0.3-1.4-0.6-2.3-0.7c-0.9-0.1-2-0.2-3.4-0.4c-0.4,0-0.6-0.2-0.8-0.6
	C65.1,4,65,3.6,65,3.1s0.1-0.8,0.2-1.2c0.1-0.4,0.4-0.6,0.9-0.6c1.8,0,3.7,0.1,5.7,0.3c2,0.2,4.1,0.3,6.1,0.3c1.9,0,3.8-0.1,5.7-0.3
	c1.9-0.2,4-0.3,6.3-0.3c0.4,0,0.8,0.2,1,0.6c0.2,0.4,0.3,0.8,0.3,1.2S91.1,4,90.9,4.4c-0.2,0.4-0.6,0.6-1,0.6
	c-1.3,0.1-2.4,0.3-3.1,0.3c-0.8,0.1-1.4,0.3-2,0.6c-0.6,0.3-1,0.8-1.5,1.4c-0.4,0.6-0.9,1.6-1.4,2.8c-0.4,0.9-0.7,2.1-0.9,3.6
	c-0.2,1.5-0.4,3.2-0.5,5c-0.1,1.8-0.2,3.5-0.2,5.3c0,1.8,0,3.3,0,4.6v47.8c0,0.2-0.2,0.4-0.6,0.6c-0.4,0.1-0.9,0.2-1.4,0.3
	c-0.6,0-1.1,0-1.6-0.1c-0.5-0.1-0.8-0.2-1-0.4L28.2,20.5c-0.6-0.7-1-1-1.3-0.9c-0.3,0-0.4,0.5-0.4,1.5v40.2c0,2.6,0.2,4.7,0.6,6.2
	c0.4,1.5,1,2.6,1.9,3.3c0.8,0.7,1.9,1.2,3.1,1.4c1.2,0.3,2.7,0.5,4.4,0.7c0.4,0.1,0.8,0.3,1,0.7c0.2,0.4,0.3,0.8,0.3,1.2
	c0,0.4-0.2,0.8-0.4,1.2c-0.2,0.4-0.6,0.6-1,0.6c-1.6,0-3.4-0.1-5.3-0.4c-1.9-0.3-4.2-0.4-6.9-0.4c-2.8,0-5.3,0.1-7.4,0.4
	c-2.2,0.3-4,0.4-5.5,0.4c-0.4,0-0.7-0.2-0.9-0.6S10,75.1,10,74.6c0-0.4,0.1-0.8,0.3-1.2c0.2-0.4,0.6-0.6,1-0.7
	c1.9-0.2,3.5-0.5,4.8-0.7c1.3-0.3,2.3-0.7,3.1-1.4c0.8-0.7,1.3-1.8,1.7-3.3c0.3-1.5,0.5-3.5,0.5-6.2V13.7z"/>
<path class="st0" d="M102.2,47.7c-0.4,0-0.6,0.1-0.6,0.4c0,0.3-0.1,0.6-0.1,0.9c0,3.8,0.4,7.1,1.3,9.7c0.8,2.6,2,4.8,3.5,6.5
	c1.5,1.7,3.3,2.9,5.4,3.6c2.1,0.7,4.4,1.1,6.8,1.1c2.5,0,4.9-0.2,7.3-0.6c2.4-0.4,4.4-1.3,6.1-2.7c0.4-0.3,0.8-0.4,1.2-0.3
	c0.4,0.1,0.7,0.3,1,0.6c0.3,0.3,0.4,0.6,0.5,1c0.1,0.4,0,0.7-0.2,1c-2.4,3.1-5,5.2-7.9,6.4c-2.9,1.2-6.6,1.8-10.9,1.8
	c-4.4,0-8.2-0.7-11.4-2s-5.8-3.2-7.9-5.6C94,67,92.4,64.2,91.4,61S90,54.3,90,50.6c0-3.6,0.6-7,1.8-10.3c1.2-3.2,2.9-6,5.1-8.4
	c2.2-2.4,4.8-4.2,7.8-5.6c3-1.4,6.4-2.1,10-2.1c3.1,0,5.9,0.5,8.4,1.6c2.5,1.1,4.7,2.5,6.5,4.4c1.8,1.9,3.1,4.1,4.1,6.7
	c1,2.6,1.5,5.4,1.5,8.4c0,1.5-0.6,2.3-1.7,2.3H102.2z M122.4,43.8c1,0,1.6-0.4,1.8-1.1c0.1-0.7,0.2-1.6,0.2-2.6c0-1.5-0.2-3-0.7-4.5
	c-0.5-1.4-1.2-2.7-2-3.8c-0.9-1.1-1.9-2-3.2-2.6c-1.3-0.7-2.7-1-4.3-1c-2,0-3.7,0.3-5.1,1c-1.4,0.7-2.6,1.6-3.6,2.8
	c-1,1.1-1.7,2.5-2.3,4c-0.5,1.5-0.9,3.2-1.1,4.9c-0.1,0.9-0.2,1.6-0.2,2.2c0,0.6,0.2,0.8,0.5,0.8H122.4z"/>
<path class="st0" d="M180.5,26.7c2.4,5.5,4.7,11,6.9,16.5c2.3,5.5,4.6,11,6.9,16.5c0.1,0.5,0.4,0.7,0.7,0.7c0.3-0.1,0.6-0.3,0.7-0.7
	c1.2-4,2.3-7.8,3.3-11.5c0.9-3.7,1.8-7.4,2.6-11.1c0.3-1.2,0.4-2.2,0.4-3.2c0-1.7-0.4-2.8-1.3-3.3c-0.9-0.5-2.3-0.9-4.2-1.2
	c-0.5-0.1-0.9-0.3-1.1-0.7c-0.2-0.4-0.3-0.7-0.3-1.1c0-0.4,0.1-0.8,0.4-1.2c0.3-0.3,0.6-0.5,1-0.5c1.8,0,3.4,0.1,4.9,0.4
	c1.5,0.3,2.9,0.4,4.4,0.4c1.5,0,3-0.1,4.7-0.4c1.7-0.3,3-0.4,4-0.4c0.4,0,0.8,0.2,0.9,0.5c0.2,0.3,0.3,0.7,0.3,1.2
	c0,0.4-0.1,0.8-0.3,1.2c-0.2,0.4-0.4,0.6-0.7,0.6c-1.5,0.1-2.7,0.5-3.7,1c-1,0.6-1.8,1.3-2.5,2.3c-0.7,1-1.3,2.1-1.8,3.3
	c-0.5,1.3-0.9,2.6-1.4,4.1c-3.7,12.6-7.6,25-11.8,37.4c-0.1,0.4-0.6,0.7-1.4,0.7c-0.8,0-1.2-0.2-1.4-0.6c-2.1-5.8-4.3-11.6-6.5-17.3
	s-4.7-11.7-7.4-17.8c-0.1-0.4-0.4-0.6-0.7-0.6c-0.3,0-0.5,0.2-0.7,0.6c-1.3,3.5-2.6,6.7-3.8,9.7c-1.2,3-2.3,5.9-3.4,8.7
	c-1.1,2.8-2.1,5.6-3.1,8.3c-1,2.7-2.1,5.5-3.1,8.4c-0.1,0.4-0.6,0.7-1.4,0.7c-0.8,0-1.3-0.2-1.4-0.7c-2.3-6.5-4.5-12.9-6.7-19.2
	c-2.2-6.4-4.2-12.7-6.2-19c-0.6-1.8-1.2-3.3-1.7-4.5c-0.6-1.2-1.2-2.1-1.8-2.9c-0.7-0.7-1.4-1.3-2.3-1.7c-0.9-0.4-1.9-0.7-3.1-0.9
	c-0.4-0.1-0.6-0.3-0.8-0.7c-0.1-0.4-0.2-0.7-0.2-1.1c0-0.4,0.1-0.8,0.2-1.2c0.1-0.3,0.4-0.5,0.8-0.5c1.8,0,3.7,0.1,5.7,0.4
	c1.9,0.3,4,0.4,6.1,0.4c2.1,0,4.2-0.1,6.2-0.4c2-0.3,4.1-0.4,6.1-0.4c0.4,0,0.7,0.2,0.9,0.5c0.2,0.3,0.3,0.7,0.4,1.1
	c0,0.4-0.1,0.8-0.3,1.2c-0.2,0.4-0.6,0.6-1,0.7c-2.1,0.3-3.6,0.8-4.5,1.4c-0.9,0.7-1.3,1.6-1.3,2.8c0,0.6,0.1,1.2,0.2,1.9
	c0.1,0.7,0.3,1.5,0.6,2.3c1,3.8,2.1,7.4,3.3,11c1.1,3.6,2.3,7.2,3.6,10.8c0.1,0.4,0.4,0.7,0.8,0.7c0.4,0,0.7-0.2,0.9-0.6
	c4.3-11.6,8.5-22.6,12.8-33c0.2-0.5,0.6-0.8,1.2-0.8C179.8,26.1,180.3,26.3,180.5,26.7z"/>
<path class="st1" d="M90.8,128.5c-0.4,0-0.6,0.1-0.6,0.4c0,0.3-0.1,0.6-0.1,0.9c0,3.8,0.4,7.1,1.3,9.7c0.8,2.6,2,4.8,3.5,6.5
	c1.5,1.7,3.3,2.9,5.4,3.6c2.1,0.7,4.4,1.1,6.8,1.1c2.5,0,4.9-0.2,7.3-0.6c2.4-0.4,4.4-1.3,6.1-2.7c0.4-0.3,0.8-0.4,1.2-0.3
	c0.4,0.1,0.7,0.3,1,0.6c0.3,0.3,0.4,0.6,0.5,1c0.1,0.4,0,0.7-0.2,1c-2.4,3.1-5,5.2-7.9,6.4c-2.9,1.2-6.6,1.8-10.9,1.8
	c-4.4,0-8.2-0.7-11.4-2c-3.2-1.3-5.8-3.2-7.9-5.6c-2.1-2.4-3.6-5.2-4.6-8.4s-1.5-6.7-1.5-10.4c0-3.6,0.6-7,1.8-10.3
	c1.2-3.2,2.9-6,5.1-8.4c2.2-2.4,4.8-4.2,7.8-5.6c3-1.4,6.4-2.1,10-2.1c3.1,0,5.9,0.5,8.4,1.6c2.5,1.1,4.7,2.5,6.5,4.4
	c1.8,1.9,3.1,4.1,4.1,6.7c1,2.6,1.5,5.4,1.5,8.4c0,1.5-0.6,2.3-1.7,2.3H90.8z M111,124.6c1,0,1.6-0.4,1.8-1.1
	c0.1-0.7,0.2-1.6,0.2-2.6c0-1.5-0.2-3-0.7-4.5c-0.5-1.4-1.2-2.7-2-3.8c-0.9-1.1-1.9-2-3.2-2.6c-1.3-0.7-2.7-1-4.3-1
	c-2,0-3.7,0.3-5.1,1c-1.4,0.7-2.6,1.6-3.6,2.8c-1,1.1-1.7,2.5-2.3,4c-0.5,1.5-0.9,3.2-1.1,4.9c-0.1,0.9-0.2,1.6-0.2,2.2
	c0,0.6,0.2,0.8,0.5,0.8H111z"/>
<path class="st1" d="M171.6,144.7c0,2.6,0.2,4.4,0.7,5.4c0.5,1,1.4,1.5,2.8,1.5c0.8,0,1.5-0.1,2-0.3c0.5-0.2,1.2-0.6,2.2-1.2
	c0.2-0.1,0.5-0.1,0.7,0c0.3,0.1,0.5,0.3,0.7,0.6c0.2,0.3,0.3,0.6,0.4,0.9c0.1,0.3,0,0.6-0.2,0.8c-2.9,3.5-6.3,5.2-10.1,5.2
	c-2.1,0-4-0.6-5.5-1.7c-1.5-1.1-2.6-2.5-3.4-4c-0.1-0.4-0.4-0.4-0.7-0.1c-1.9,1.7-4.1,3.1-6.7,4.2c-2.5,1.1-5.7,1.7-9.5,1.7
	c-4.2,0-7.4-1.1-9.7-3.4c-2.3-2.2-3.4-5.4-3.4-9.5c0-5.3,2.5-9.4,7.4-12.2c4.9-2.8,12.1-4.2,21.5-4.2c0.1,0,0.3-0.2,0.3-0.6
	c0.1-0.4,0.1-1.2,0.1-2.5v-3c0-1.8-0.1-3.6-0.4-5.2c-0.3-1.6-0.8-3-1.5-4.2c-0.7-1.2-1.7-2.2-2.9-2.9c-1.3-0.7-2.8-1-4.6-1
	c-2.7,0-4.9,0.5-6.6,1.6c-1.7,1.1-2.5,2.4-2.5,4.1c0,0.8,0.3,1.6,0.8,2.4c0.5,0.8,0.8,1.6,0.8,2.4c0,1-0.5,2-1.5,3
	c-1,1-2.3,1.4-3.8,1.4c-2,0-3.4-0.5-4.2-1.6c-0.8-1.1-1.3-2.4-1.3-3.9c0-1.8,0.5-3.6,1.5-5.2c1-1.7,2.4-3.1,4.2-4.2
	c1.8-1.2,3.8-2.1,6.2-2.8c2.4-0.7,4.8-1,7.4-1c5.9,0,10.5,1.4,13.9,4.1c3.4,2.7,5.1,7.2,5.1,13.6V144.7z M161.3,133.8
	c0-0.8,0-1.3-0.1-1.5c-0.1-0.2-0.3-0.3-0.6-0.3c-6,0.5-10.5,1.8-13.4,3.8c-2.9,2-4.4,4.6-4.4,7.8c0,2.2,0.6,4.1,1.7,5.6
	c1.1,1.5,2.9,2.3,5.5,2.3c1.7,0,3.5-0.3,5.3-1c1.9-0.7,3.5-1.6,5-2.9c0.6-0.6,0.9-1.2,0.9-1.8V133.8z"/>
<path class="st1" d="M204.8,143.5c0,1.8,0.1,3.4,0.2,4.6c0.1,1.2,0.5,2.2,1.1,2.9c0.6,0.7,1.6,1.3,2.9,1.8c1.4,0.4,3.3,0.8,5.7,1.1
	c0.4,0.1,0.8,0.3,1,0.6c0.2,0.3,0.3,0.7,0.3,1.2c0,0.4-0.1,0.7-0.3,1c-0.2,0.3-0.5,0.5-0.9,0.5c-2.9,0-5.6-0.1-7.9-0.4
	s-4.6-0.4-6.8-0.4c-2.4,0-4.7,0.1-7.1,0.4c-2.4,0.3-4.6,0.4-6.8,0.4c-0.4,0-0.8-0.2-1-0.5c-0.2-0.3-0.3-0.7-0.3-1
	c0-0.4,0.1-0.8,0.3-1.2c0.2-0.3,0.6-0.5,1.1-0.6c2-0.2,3.5-0.5,4.6-0.9c1.1-0.4,1.9-1,2.4-1.7c0.5-0.7,0.8-1.7,0.9-2.9
	c0.1-1.2,0.2-2.7,0.2-4.5v-30.2c0-1-0.1-1.6-0.2-1.8c-0.1-0.2-0.7-0.3-1.7-0.3h-5.5c-0.4,0-0.8-0.2-1-0.6c-0.2-0.4-0.3-0.8-0.3-1.3
	c0-0.5,0.1-1,0.4-1.4c0.3-0.4,0.6-0.7,1-0.8l6-0.6c0.3,0,0.5,0,0.7-0.1c0.2-0.1,0.3-0.2,0.4-0.5c0.1-0.3,0.2-0.7,0.2-1.3
	c0-0.7,0-1.5,0-2.6c0-3.2,0.5-6.2,1.5-9c1-2.8,2.4-5.1,4.4-7.2c1.9-2,4.3-3.6,7.1-4.7c2.8-1.1,6-1.7,9.6-1.7c1.8,0,3.7,0.2,5.5,0.6
	c1.8,0.4,3.4,1,4.9,1.8c1.4,0.8,2.6,1.9,3.5,3.3c0.9,1.4,1.3,3,1.3,5c0,1.3-0.5,2.5-1.5,3.4c-1,1-2.3,1.4-3.8,1.4
	c-1.3,0-2.4-0.3-3.4-0.9c-1-0.6-1.5-1.6-1.5-2.8c0-1.1,0.2-1.8,0.5-2.2c0.3-0.3,0.5-0.8,0.5-1.3c0-1.5-0.6-2.6-1.9-3.3
	c-1.3-0.7-2.8-1.1-4.7-1.1c-2.9,0-5.1,0.6-6.6,1.9c-1.5,1.3-2.7,2.8-3.4,4.7c-0.7,1.9-1.2,4-1.3,6.2c-0.1,2.2-0.2,4.4-0.2,6.3v2.1
	c0,0.9,0.1,1.4,0.2,1.6c0.1,0.2,0.6,0.3,1.4,0.3h10.7c0.4,0,0.8,0.2,1,0.7c0.2,0.5,0.3,1,0.3,1.6c0,0.6-0.1,1.1-0.3,1.6
	c-0.2,0.5-0.6,0.7-1,0.7h-10.7c-0.8,0-1.3,0.1-1.4,0.3c-0.1,0.2-0.2,0.8-0.2,1.8V143.5z"/>
<g>
	<path class="st0" d="M11.6,85.8c2.3,0.1,4.1,0.5,5.5,1c1.4,0.6,2.4,1.3,3.1,2.4c0.7,1,1.2,2.4,1.5,4c0.3,1.6,0.4,3.6,0.4,5.8v0.1
		v25.8c3.6-2.3,7.5-4.7,12-7.3V99c0-2.5,0.1-4.6,0.3-6.2c0.2-1.6,0.7-2.9,1.4-3.9c0.7-1,1.8-1.7,3.2-2.2c1.4-0.5,3.2-0.8,5.5-0.9
		c0.4,0,0.7-0.2,0.9-0.6c0.2-0.4,0.3-0.8,0.4-1.3c0-0.4,0-0.8-0.2-1.2c-0.2-0.4-0.5-0.6-0.9-0.6c-1.5,0-3,0-4.3,0.1
		c-1.3,0.1-2.6,0.1-3.9,0.2c-1.3,0.1-2.6,0.1-4,0.2c-1.4,0.1-2.8,0.1-4.4,0.1c-2.6,0-5.5-0.1-8.5-0.3c-3-0.2-5.7-0.3-8.1-0.3
		c-0.4,0-0.8,0.2-1,0.6c-0.2,0.4-0.3,0.8-0.3,1.2s0.1,0.9,0.3,1.3C10.8,85.6,11.1,85.8,11.6,85.8z"/>
	<path class="st1" d="M71,137.3c-0.4-0.2-0.9-0.3-1.4-0.3c-0.5,0-1,0.1-1.4,0.2c-0.4,0.1-0.7,0.4-0.8,0.9c-0.3,2.2-0.7,4-1.2,5.5
		c-0.5,1.4-1.1,2.6-1.8,3.6c-0.7,1-1.6,1.7-2.7,2.3c-1.1,0.6-2.3,1.1-3.8,1.7c-0.8,0.3-2,0.5-3.5,0.7c-1.5,0.1-3.2,0.2-5,0.2
		c-1.4,0-2.7-0.1-4-0.2c-1.3-0.1-2.4-0.3-3.5-0.5c-1.5-0.4-2.8-1-3.9-1.5c-1-0.6-1.8-1.4-2.4-2.5c-0.6-1.1-1-2.4-1.2-4
		c-0.2-1.6-0.3-3.5-0.3-5.9v-7.8c-4.7,2.4-8.7,4.5-12,6.5v6.3c0,2.4-0.1,4.3-0.4,5.7c-0.3,1.4-0.8,2.4-1.5,3.1
		c-0.7,0.7-1.8,1.2-3.2,1.5c-1.4,0.3-3.2,0.6-5.5,0.9c-0.5,0.1-0.9,0.3-1.2,0.7c-0.3,0.4-0.4,0.8-0.4,1.3c0,0.4,0.1,0.8,0.4,1.2
		c0.3,0.4,0.6,0.6,1.2,0.6c2.6-0.1,5.2-0.3,7.8-0.5c2.6-0.2,5.4-0.3,8.3-0.3h40c1.1,0,1.8-0.2,2.1-0.6c0.3-0.4,0.4-0.7,0.4-0.9
		c-0.1-2.8,0-5.5,0.3-8.2c0.3-2.7,0.6-5.6,1-8.7C71.5,137.8,71.4,137.5,71,137.3z"/>
</g>
<g>
	<path class="st1" d="M182.5,61.1c-1.1-2.9-2.3-5.9-3.6-8.9c-1.9,0.9-3.9,1.8-5.9,2.7c-0.9,2.4-1.8,4.7-2.7,6.9
		c-1.1,2.8-2.1,5.5-3.1,8.3c-1,2.6-2,5.4-3.1,8.4c-0.2,0.7-1,1.9-3.2,2c-0.1,0-0.2,0-0.2,0c-2.3,0-3-1.5-3.2-2.1
		c-1.7-4.7-3.3-9.5-4.9-14.2c-36.5,16.6-79.5,36.3-99.3,45.8C24,124,11,134.9,0.6,143.4c-0.1,0.1-0.2,0.2-0.3,0.4
		c-0.3,0.9-1,3.9,2.1,2.6c4.9-1.9,14.4-12.8,51.9-28.1c31-12.6,91.1-26.9,133.4-43.3C186,70.3,184.2,65.6,182.5,61.1z"/>
	<path class="st1" d="M191.1,46.7c1.3,3,2.6,6.1,3.9,9.2c0.8-2.8,1.6-5.5,2.2-8.1c0.4-1.4,0.7-2.9,1-4.3
		C196,44.5,193.6,45.5,191.1,46.7z"/>
	<path class="st1" d="M276.6,6l-62.8,30.5c0,0-2.1,1-5.9,2.7c-0.2,0.6-0.4,1.1-0.5,1.7c-2.9,10-6.1,20.1-9.3,30
		c5-2.1,9.6-4.3,13.7-6.5c45.5-24,59.4-44.4,65.6-57C277.8,6.6,277.3,5.6,276.6,6z"/>
</g>
</svg>
